<svg height="496pt" viewBox="-32 0 496 496" width="496pt" xmlns="http://www.w3.org/2000/svg"><path d="m392 168v-80h-32v368c0 17.28125 13.679688 31.359375 30.800781 31.921875.398438.078125.800781.078125 1.199219.078125 8.800781 0 16.800781-3.601562 22.640625-9.359375 5.757813-5.839844 9.359375-13.839844 9.359375-22.640625v-288zm0 0" fill="#ff826e"/><path d="m8 456v-448h352v448c0 17.28125 13.679688 31.359375 30.800781 31.921875.398438.078125.800781.078125 1.199219.078125h-352c-17.679688 0-32-14.320312-32-32zm0 0" fill="#e6e9ed"/><path d="m328 248v208h-208v-208zm0 0" fill="#fcd770"/><path d="m296 408.160156v15.839844h-144v-15.839844c0-14.320312 9.441406-26.878906 23.199219-30.800781l32.800781-9.359375v-12.398438c-9.519531-5.601562-16-15.761718-16-27.601562v-16c0-18.71875 16.078125-33.679688 35.121094-31.839844 16.640625 1.601563 28.878906 16.480469 28.878906 33.199219v14.640625c0 11.839844-6.480469 22-16 27.601562v12.398438l32.800781 9.359375c13.757813 3.921875 23.199219 16.480469 23.199219 30.800781zm0 0" fill="#f0d0b4"/><path d="m81.199219 53.441406c13.519531-8.480468 29.601562-13.441406 46.800781-13.441406.878906 0 1.761719 0 2.640625.078125v.082031c-1.679687 4.238282-2.640625 8.800782-2.640625 13.679688 0 11.441406 5.199219 22.320312 14.160156 29.519531l13.679688 10.878906c7.679687 6.160157 12.160156 15.523438 12.160156 25.363281 0 17.917969 14.480469 32.398438 32.398438 32.398438 4.402343 0 8.640624-.640625 12.640624-1.761719h.082032c-9.761719 37.839844-44.160156 65.761719-85.121094 65.761719s-75.28125-27.839844-85.121094-65.679688h.082032c2.878906 1.039063 5.917968 1.679688 9.117187 1.679688 12.800781 0 24.960937 5.039062 34 14.078125l1.601563 1.601563c5.359374 5.359374 12.558593 8.320312 20 8.320312 15.679687 0 28.320312-12.640625 28.320312-28.320312v-7.679688c0-11.039062-8.960938-20-20-20s-20-8.960938-20-20v-12c0-10.398438-3.359375-20.480469-9.601562-28.800781-1.519532-2.078125-3.277344-3.917969-5.117188-5.679688zm0 0" fill="#69d6f4"/><path d="m216 128c0 7.679688-.960938 15.121094-2.878906 22.238281h-.082032c-4 1.121094-8.238281 1.761719-12.640624 1.761719-17.917969 0-32.398438-14.480469-32.398438-32.398438 0-9.839843-4.480469-19.203124-12.160156-25.363281l-13.679688-10.878906c-8.960937-7.199219-14.160156-18.078125-14.160156-29.519531 0-4.878906.960938-9.441406 2.640625-13.679688v-.082031c47.4375 1.363281 85.359375 40.160156 85.359375 87.921875zm0 0" fill="#b4dd7f"/><path d="m86.398438 59.199219c6.242187 8.320312 9.601562 18.402343 9.601562 28.800781v12c0 11.039062 8.960938 20 20 20s20 8.960938 20 20v7.679688c0 15.679687-12.640625 28.320312-28.320312 28.320312-7.441407 0-14.640626-2.960938-20-8.320312l-1.601563-1.601563c-9.039063-9.039063-21.199219-14.078125-34-14.078125-3.199219 0-6.238281-.640625-9.117187-1.679688h-.082032c-1.917968-7.121093-2.878906-14.640624-2.878906-22.320312 0-31.441406 16.480469-58.960938 41.199219-74.558594l.082031.078125c1.839844 1.761719 3.597656 3.601563 5.117188 5.679688zm0 0" fill="#b4dd7f"/><path d="m400 160v-80h-32v-80h-368v456c0 22.054688 17.945312 40 40 40h352c22.054688 0 40-17.945312 40-40v-296zm-360 320c-13.230469 0-24-10.769531-24-24v-440h336v440c0 9 2.984375 17.3125 8.015625 24zm376-24c0 13.230469-10.769531 24-24 24s-24-10.769531-24-24v-360h16v336h16v-256h16zm0 0"/><path d="m384 448h16v16h-16zm0 0"/><path d="m274.984375 369.671875-26.984375-7.703125v-2.136719c9.96875-7.511719 16-19.328125 16-31.832031v-14.625c0-21.167969-15.855469-39.253906-36.105469-41.183594-11.207031-1.101562-22.480469 2.640625-30.796875 10.199219-8.320312 7.570313-13.097656 18.363281-13.097656 29.609375v16c0 12.503906 6.03125 24.320312 16 31.832031v2.136719l-26.992188 7.703125c-17.078124 4.886719-29.007812 20.703125-29.007812 38.472656v23.855469h160v-23.855469c0-17.769531-11.929688-33.585937-29.015625-38.472656zm13.015625 46.328125h-128v-7.855469c0-10.65625 7.160156-20.152343 17.40625-23.082031l38.59375-11.03125v-23.070312l-3.976562-2.3125c-7.527344-4.382813-12.023438-12.105469-12.023438-20.648438v-16c0-6.753906 2.863281-13.222656 7.855469-17.769531 5.066406-4.605469 11.585937-6.742188 18.519531-6.125 12.128906 1.160156 21.625 12.261719 21.625 25.269531v14.625c0 8.542969-4.496094 16.265625-12.023438 20.648438l-3.976562 2.3125v23.070312l38.585938 11.03125c10.253906 2.929688 17.414062 12.425781 17.414062 23.082031zm0 0"/><path d="m112 464h224v-224h-224zm16-208h192v192h-192zm0 0"/><path d="m128 224c52.9375 0 96-43.0625 96-96s-43.0625-96-96-96-96 43.0625-96 96 43.0625 96 96 96zm0-16c-32.625 0-60.703125-19.664062-73.144531-47.734375 9.632812.65625 18.648437 4.542969 25.535156 11.429687l1.671875 1.679688c6.847656 6.847656 15.960938 10.625 25.65625 10.625 20.007812 0 36.28125-16.273438 36.28125-36.28125v-7.71875c0-15.441406-12.558594-28-28-28-6.617188 0-12-5.382812-12-12v-12c0-11.480469-3.703125-22.792969-10.304688-32.160156 8.273438-3.953125 17.289063-6.566406 26.824219-7.457032-.222656 1.808594-.519531 3.625-.519531 5.441407 0 14.007812 6.273438 27.046875 17.191406 35.785156l13.640625 10.902344c5.824219 4.65625 9.167969 11.617187 9.167969 19.0625 0 22.289062 18.136719 40.425781 40.425781 40.425781.285157 0 .589844-.054688.878907-.0625-12.359376 28.253906-40.550782 48.0625-73.304688 48.0625zm80-80c0 5.289062-.542969 10.457031-1.527344 15.464844-2.03125.320312-4.058594.535156-6.046875.535156-13.472656 0-24.425781-10.953125-24.425781-24.425781 0-12.335938-5.519531-23.839844-15.167969-31.558594l-13.648437-10.910156c-7.105469-5.679688-11.183594-14.167969-11.183594-23.28125 0-1.777344.175781-3.558594.527344-5.351563 40.113281 4.269532 71.472656 38.296875 71.472656 79.527344zm-127.9375-63.894531c5.113281 6.855469 7.9375 15.335937 7.9375 23.894531v12c0 15.441406 12.558594 28 28 28 6.617188 0 12 5.382812 12 12v7.71875c0 11.175781-9.105469 20.28125-20.28125 20.28125-5.421875 0-10.511719-2.113281-14.328125-5.921875l-1.671875-1.679687c-10.582031-10.574219-24.648438-16.398438-39.597656-16.398438-.824219 0-1.679688-.113281-2.546875-.238281-1.023438-5.105469-1.574219-10.371094-1.574219-15.761719 0-26.121094 12.640625-49.28125 32.0625-63.894531zm0 0"/><path d="m240 32h96v16h-96zm0 0"/><path d="m240 64h16v16h-16zm0 0"/><path d="m272 64h64v16h-64zm0 0"/><path d="m240 96h96v16h-96zm0 0"/><path d="m240 128h96v16h-96zm0 0"/><path d="m240 160h64v16h-64zm0 0"/><path d="m320 160h16v16h-16zm0 0"/><path d="m32 440h64v16h-64zm0 0"/><path d="m32 408h64v16h-64zm0 0"/><path d="m32 376h64v16h-64zm0 0"/><path d="m32 344h64v16h-64zm0 0"/><path d="m32 312h64v16h-64zm0 0"/></svg>